<svg width="264" height="98" viewBox="0 0 264 98" fill="none" xmlns="http://www.w3.org/2000/svg">
<g filter="url(#filter0_b_305_3)">
<rect width="264" height="98" rx="15" fill="url(#paint0_linear_305_3)" fill-opacity="0.3"/>
<rect x="1" y="1" width="262" height="96" rx="14" stroke="url(#paint1_linear_305_3)" stroke-width="2"/>
</g>
<path d="M52.25 49.275C49.6667 49.275 47.525 48.775 45.825 47.775C44.3083 46.925 43.1833 45.7417 42.45 44.225C41.8 42.9417 41.475 41.525 41.475 39.975V39.3C41.475 37.8 41.7917 36.425 42.425 35.175C43.175 33.6583 44.2917 32.475 45.775 31.625C47.525 30.6417 49.7167 30.15 52.35 30.15H53.2C56.9 30.15 59.6917 30.8667 61.575 32.3C62.375 32.9 62.9583 33.5917 63.325 34.375C63.6917 35.1417 63.875 35.9333 63.875 36.75V36.8H58.55L58.25 36.2C57.9 35.55 57.05 35.0333 55.7 34.65C54.9833 34.45 54.0167 34.35 52.8 34.35C50.6833 34.35 49.1167 34.8833 48.1 35.95C47.25 36.85 46.825 38.0083 46.825 39.425V39.75C46.825 40.4 46.9333 41.0417 47.15 41.675C47.3667 42.2917 47.7083 42.8417 48.175 43.325C49.2917 44.4917 50.8917 45.075 52.975 45.075C54.8417 45.075 56.2917 44.6583 57.325 43.825C57.7083 43.5083 57.9917 43.1833 58.175 42.85C58.3083 42.55 58.3917 42.325 58.425 42.175H53.375V38.85H64.1V49H60C59.9833 48.7833 59.9083 48.3417 59.775 47.675C59.6417 47.1583 59.5083 46.7417 59.375 46.425C59.2417 46.5917 59.0417 46.8083 58.775 47.075C57.9917 47.8583 56.9 48.4667 55.5 48.9C54.7 49.15 53.75 49.275 52.65 49.275H52.25ZM67.9486 39.475H76.1736V43.55H67.9486V39.475Z" fill="white"/>
<path d="M86.3627 49V34.65H79.1627V30.4H98.6877V34.65H91.4877V49H86.3627ZM118.614 40.05C119.914 40.35 120.914 40.9 121.614 41.7C122.314 42.4833 122.664 43.5417 122.664 44.875V46.8C122.664 47.5167 122.697 48 122.764 48.25C122.814 48.4833 122.881 48.6917 122.964 48.875V49H117.639C117.589 48.8333 117.556 48.7 117.539 48.6C117.489 48.4167 117.464 48.1167 117.464 47.7V46.175C117.464 44.9417 117.197 44.05 116.664 43.5C116.147 42.95 115.256 42.675 113.989 42.675H107.289V49H102.139V30.4H114.664C117.797 30.4 119.997 30.975 121.264 32.125C122.114 32.9083 122.539 33.9917 122.539 35.375V35.625C122.539 36.7583 122.181 37.7167 121.464 38.5C120.764 39.2667 119.814 39.7833 118.614 40.05ZM107.289 38.45H114.464C115.431 38.45 116.139 38.25 116.589 37.85C116.956 37.5333 117.139 37.075 117.139 36.475V36.425C117.139 35.825 116.956 35.3667 116.589 35.05C116.172 34.6833 115.464 34.5 114.464 34.5H107.289V38.45ZM126.675 30.4H143.7V34.45H131.75V37.475H143.325V41.675H131.75V44.9H143.85V49H126.675V30.4ZM164.089 49L152.989 36.95V49H147.964V30.4H153.264L164.139 42.375V30.4H169.139V49H164.089ZM173.745 30.4H183.27C186.304 30.4 188.77 30.8667 190.67 31.8C192.287 32.6 193.487 33.7083 194.27 35.125C194.887 36.3083 195.195 37.6167 195.195 39.05V39.8C195.195 41.3333 194.92 42.7083 194.37 43.925C193.67 45.4583 192.52 46.6417 190.92 47.475C188.97 48.4917 186.429 49 183.295 49H173.745V30.4ZM178.895 44.85H183.045C185.795 44.85 187.712 44.25 188.795 43.05C189.195 42.6 189.47 42.0917 189.62 41.525C189.77 40.9583 189.845 40.35 189.845 39.7V39.55C189.845 38.1167 189.487 37.0167 188.77 36.25C187.704 35.1 185.795 34.525 183.045 34.525H178.895V44.85ZM207.891 49.325C205.175 49.325 203.041 48.9583 201.491 48.225C200.208 47.6083 199.291 46.775 198.741 45.725C198.358 44.9917 198.166 44.1333 198.166 43.15V42.875H203.766C203.8 43.5417 204.05 44.0917 204.516 44.525C205.2 45.2083 206.408 45.55 208.141 45.55H208.316C210.033 45.55 211.25 45.3083 211.966 44.825C212.45 44.5083 212.691 44.0083 212.691 43.325C212.691 42.7083 212.441 42.2583 211.941 41.975C211.341 41.6583 210.325 41.4667 208.891 41.4L206.416 41.325C203.566 41.225 201.466 40.6417 200.116 39.575C198.95 38.6583 198.366 37.4333 198.366 35.9V35.675C198.366 33.9917 198.95 32.7083 200.116 31.825C201.6 30.725 204.1 30.175 207.616 30.175H208.466C212.133 30.175 214.725 30.775 216.241 31.975C217.291 32.825 217.816 34.0417 217.816 35.625V35.9H212.291C212.241 35.6333 212.158 35.3917 212.041 35.175C211.941 34.9417 211.766 34.7333 211.516 34.55C210.816 34.0833 209.683 33.85 208.116 33.85H207.866C206.3 33.85 205.208 33.9917 204.591 34.275C204.058 34.5417 203.791 34.95 203.791 35.5C203.791 36.0333 204.025 36.4333 204.491 36.7C205.041 37.0167 206.008 37.2083 207.391 37.275L209.966 37.375C213.083 37.4917 215.283 38.05 216.566 39.05C217.65 39.8833 218.191 41.1417 218.191 42.825V43.125C218.191 44.8917 217.641 46.2667 216.541 47.25C214.991 48.6333 212.35 49.325 208.616 49.325H207.891Z" fill="#4324FF"/>
<path d="M52.374 71L51.52 69.068H45.892L45.052 71H42.154L46.774 60.584H50.638L55.468 71H52.374ZM50.554 66.926L48.664 62.684L46.83 66.926H50.554ZM74.3352 71L68.1192 64.252V71H65.3052V60.584H68.2732L74.3632 67.29V60.584H77.1632V71H74.3352ZM97.2287 71L96.3747 69.068H90.7467L89.9067 71H87.0087L91.6287 60.584H95.4927L100.323 71H97.2287ZM95.4087 66.926L93.5187 62.684L91.6847 66.926H95.4087ZM110.16 60.584H113.044V68.55H119.414V71H110.16V60.584ZM131.392 71V67.192L126.226 60.584H129.796L132.918 64.714L136.04 60.584H139.26L134.276 67.206V71H131.392ZM152.305 71V62.964H148.273V60.584H159.207V62.964H155.175V71H152.305ZM172.424 60.584V71H169.54V60.584H172.424ZM188.953 71.154C187.478 71.154 186.255 70.86 185.285 70.272C184.445 69.7773 183.829 69.1053 183.437 68.256C183.101 67.5467 182.933 66.786 182.933 65.974V65.554C182.933 64.7233 183.101 63.958 183.437 63.258C183.847 62.4087 184.463 61.746 185.285 61.27C186.265 60.71 187.487 60.43 188.953 60.43H189.597C191.613 60.43 193.129 60.8687 194.147 61.746C194.585 62.1193 194.907 62.5487 195.113 63.034C195.318 63.5193 195.421 64.0233 195.421 64.546V64.574H192.453C192.434 64.49 192.392 64.3547 192.327 64.168C192.243 63.9533 192.084 63.748 191.851 63.552C191.617 63.3467 191.309 63.174 190.927 63.034C190.535 62.8847 189.984 62.81 189.275 62.81C188.089 62.81 187.212 63.104 186.643 63.692C186.4 63.944 186.218 64.2427 186.097 64.588C185.985 64.924 185.929 65.274 185.929 65.638V65.834C185.929 66.1793 185.985 66.5247 186.097 66.87C186.218 67.206 186.405 67.5093 186.657 67.78C187.245 68.4333 188.122 68.76 189.289 68.76C190.465 68.76 191.337 68.494 191.907 67.962C192.093 67.7753 192.229 67.5887 192.313 67.402C192.397 67.2153 192.443 67.0567 192.453 66.926H195.421V66.968C195.421 67.472 195.318 67.9713 195.113 68.466C194.917 68.9513 194.604 69.3853 194.175 69.768C193.689 70.1973 193.064 70.538 192.299 70.79C191.543 71.0327 190.642 71.154 189.597 71.154H188.953ZM210.916 71.182C209.395 71.182 208.2 70.9767 207.332 70.566C206.614 70.2207 206.1 69.754 205.792 69.166C205.578 68.7553 205.47 68.2747 205.47 67.724V67.57H208.606C208.625 67.9433 208.765 68.2513 209.026 68.494C209.409 68.8767 210.086 69.068 211.056 69.068H211.154C212.116 69.068 212.797 68.9327 213.198 68.662C213.469 68.4847 213.604 68.2047 213.604 67.822C213.604 67.4767 213.464 67.2247 213.184 67.066C212.848 66.8887 212.279 66.7813 211.476 66.744L210.09 66.702C208.494 66.646 207.318 66.3193 206.562 65.722C205.909 65.2087 205.582 64.5227 205.582 63.664V63.538C205.582 62.5953 205.909 61.8767 206.562 61.382C207.393 60.766 208.793 60.458 210.762 60.458H211.238C213.292 60.458 214.743 60.794 215.592 61.466C216.18 61.942 216.474 62.6233 216.474 63.51V63.664H213.38C213.352 63.5147 213.306 63.3793 213.24 63.258C213.184 63.1273 213.086 63.0107 212.946 62.908C212.554 62.6467 211.92 62.516 211.042 62.516H210.902C210.025 62.516 209.414 62.5953 209.068 62.754C208.77 62.9033 208.62 63.132 208.62 63.44C208.62 63.7387 208.751 63.9627 209.012 64.112C209.32 64.2893 209.862 64.3967 210.636 64.434L212.078 64.49C213.824 64.5553 215.056 64.868 215.774 65.428C216.381 65.8947 216.684 66.5993 216.684 67.542V67.71C216.684 68.6993 216.376 69.4693 215.76 70.02C214.892 70.7947 213.413 71.182 211.322 71.182H210.916Z" fill="white"/>
<defs>
<filter id="filter0_b_305_3" x="-45" y="-45" width="354" height="188" filterUnits="userSpaceOnUse" color-interpolation-filters="sRGB">
<feFlood flood-opacity="0" result="BackgroundImageFix"/>
<feGaussianBlur in="BackgroundImageFix" stdDeviation="22.5"/>
<feComposite in2="SourceAlpha" operator="in" result="effect1_backgroundBlur_305_3"/>
<feBlend mode="normal" in="SourceGraphic" in2="effect1_backgroundBlur_305_3" result="shape"/>
</filter>
<linearGradient id="paint0_linear_305_3" x1="34" y1="98" x2="270.63" y2="86.083" gradientUnits="userSpaceOnUse">
<stop stop-color="#4A4949"/>
<stop offset="1" stop-color="#A29D9D"/>
</linearGradient>
<linearGradient id="paint1_linear_305_3" x1="150" y1="2.59699e-07" x2="132.201" y2="85.2466" gradientUnits="userSpaceOnUse">
<stop stop-color="#484848"/>
<stop offset="1" stop-color="#D0CCCC" stop-opacity="0.06"/>
</linearGradient>
</defs>
</svg>
